HIERARCHY
ROOT Hips
{
	OFFSET	0.00	0.00	0.00
	CHANNELS 6 Xposition Yposition Zposition Zrotation Xrotation Yrotation
	JOINT LeftUpLeg
	{
		OFFSET	 0.126116	-0.014019	-0.065224
		CHANNELS 3 Zrotation Xrotation Yrotation
		JOINT LeftLeg
		{
			OFFSET	 0.000000	 0.000000	 0.569914
			CHANNELS 3 Zrotation Xrotation Yrotation
			JOINT LeftFoot
			{
				OFFSET	 0.000000	 0.000000	 0.544423
				CHANNELS 3 Zrotation Xrotation Yrotation
				JOINT LeftToeBase
				{
					OFFSET	 0.000000	 0.000000	 0.207117
					CHANNELS 3 Zrotation Xrotation Yrotation
					End Site
					{
						OFFSET	 0.000000	 0.000000	 0.207117
					}
				}
			}
		}
	}
	JOINT RightUpLeg
	{
		OFFSET	-0.124023	-0.008373	-0.065224
		CHANNELS 3 Zrotation Xrotation Yrotation
		JOINT RightLeg
		{
			OFFSET	 0.000000	 0.000000	 0.570047
			CHANNELS 3 Zrotation Xrotation Yrotation
			JOINT RightFoot
			{
				OFFSET	 0.000000	 0.000000	 0.544354
				CHANNELS 3 Zrotation Xrotation Yrotation
				JOINT RightToeBase
				{
					OFFSET	 0.000000	 0.000000	 0.207540
					CHANNELS 3 Zrotation Xrotation Yrotation
					End Site
					{
						OFFSET	 0.000000	 0.000000	 0.207540
					}
				}
			}
		}
	}
	JOINT Spine
	{
		OFFSET	 0.000184	-0.007763	 0.117403
		CHANNELS 3 Zrotation Xrotation Yrotation
		JOINT Spine1
		{
			OFFSET	 0.000000	 0.000000	 0.137269
			CHANNELS 3 Zrotation Xrotation Yrotation
			JOINT Spine2
			{
				OFFSET	 0.000000	 0.000000	 0.156879
				CHANNELS 3 Zrotation Xrotation Yrotation
				JOINT LeftShoulder
				{
					OFFSET	 0.080501	-0.002496	 0.160144
					CHANNELS 3 Zrotation Xrotation Yrotation
					JOINT LeftArm
					{
						OFFSET	 0.000000	 0.000000	 0.164363
						CHANNELS 3 Zrotation Xrotation Yrotation
						JOINT LeftForeArm
						{
							OFFSET	 0.000000	 0.000000	 0.364576
							CHANNELS 3 Zrotation Xrotation Yrotation
							JOINT LeftHand
							{
								OFFSET	 0.000000	 0.000000	 0.360812
								CHANNELS 3 Zrotation Xrotation Yrotation
								JOINT LeftHandIndex1
								{
									OFFSET	 0.000000	 0.000000	 0.086006
									CHANNELS 3 Zrotation Xrotation Yrotation
									JOINT LeftHandIndex2
									{
										OFFSET	 0.000000	 0.000000	 0.047237
										CHANNELS 3 Zrotation Xrotation Yrotation
										JOINT LeftHandIndex3
										{
											OFFSET	-0.004284	-0.000551	 0.038165
											CHANNELS 3 Zrotation Xrotation Yrotation
											End Site
											{
												OFFSET	-0.004284	-0.000551	 0.038165
											}
										}
									}
								}
							}
						}
					}
				}
				JOINT Neck
				{
					OFFSET	 0.000000	 0.000000	 0.176489
					CHANNELS 3 Zrotation Xrotation Yrotation
					JOINT Head
					{
						OFFSET	 0.000000	-0.001747	 0.077940
						CHANNELS 3 Zrotation Xrotation Yrotation
						End Site
						{
							OFFSET	 0.000000	-0.001747	 0.077940
						}
					}
				}
				JOINT RightShoulder
				{
					OFFSET	-0.080363	 0.000306	 0.159706
					CHANNELS 3 Zrotation Xrotation Yrotation
					JOINT RightArm
					{
						OFFSET	 0.000000	 0.000000	 0.164196
						CHANNELS 3 Zrotation Xrotation Yrotation
						JOINT RightForeArm
						{
							OFFSET	 0.000000	 0.000000	 0.365611
							CHANNELS 3 Zrotation Xrotation Yrotation
							JOINT RightHand
							{
								OFFSET	 0.000000	 0.000000	 0.360648
								CHANNELS 3 Zrotation Xrotation Yrotation
								JOINT RightHandIndex1
								{
									OFFSET	 0.000000	 0.000000	 0.069977
									CHANNELS 3 Zrotation Xrotation Yrotation
									JOINT RightHandIndex2
									{
										OFFSET	 0.000000	 0.000000	 0.052305
										CHANNELS 3 Zrotation Xrotation Yrotation
										JOINT RightHandIndex3
										{
											OFFSET	 0.009002	-0.000782	 0.042196
											CHANNELS 3 Zrotation Xrotation Yrotation
											End Site
											{
												OFFSET	 0.009002	-0.000782	 0.042196
											}
										}
									}
								}
							}
						}
					}
				}
			}
		}
	}
}
MOTION
Frames:    4
Frame Time: 0.03333334
-0.717802	-0.033215	 1.268230	 169.180800	-11.320180	-0.573110	 4.520335	 5.095799	 178.824700	-1.901355	-30.154700	-1.691803	-44.141150	 76.317110	 34.513540	-2.385833	 28.452760	 0.000004	-29.515070	-2.388641	-164.728800	 10.124140	-31.020940	 5.373955	 15.067190	 76.985300	-17.750040	 2.384659	 28.388700	-0.000001	 51.196030	 9.313028	-13.705680	 5.626162	 6.864623	-6.323128	 10.858930	 0.080416	 10.182940	-91.776170	 78.527360	 180.000000	-27.240820	 41.535680	-22.706970	-30.228140	 19.169480	-57.933670	-50.839500	-52.835380	-31.072370	-4.130354	 21.526190	 0.991307	-5.167926	 0.731697	 3.519349	-1.378229	 35.397820	-2.634230	 14.717710	 5.493864	-3.207284	 8.823406	-13.654080	-3.298764	 89.782100	 78.203870	 180.000000	-52.791420	-0.368756	 89.758540	 10.438010	 1.320310	 138.168000	 8.354733	-14.726160	 2.445227	 5.716295	 19.173350	-3.684826	 5.027458	 0.246833	-9.377971	-2.350882	 35.473990	 5.254307
-0.717657	-0.033930	 1.267813	 168.741400	-11.315390	-0.167633	 3.989288	 4.949515	 178.864700	-1.662792	-30.288170	-1.577972	-43.860630	 76.381000	 34.015640	-2.385833	 28.452760	 0.000004	-30.150290	-2.642119	-164.802600	 10.388390	-30.950160	 5.502254	 14.027010	 76.711880	-16.901110	 2.384659	 28.388700	-0.000001	 52.455520	 8.711138	-14.758780	 6.140495	 8.153051	-6.268726	 11.274360	-1.823273	 11.350630	-91.776120	 78.527360	 180.000000	-30.928680	 38.675080	-25.074200	-30.347180	 19.190740	-57.465950	-52.882580	-53.485450	-32.540680	-4.130354	 21.526190	 0.991307	-5.167926	 0.731697	 3.519349	-1.378229	 35.397820	-2.634230	 14.965970	 5.196252	-4.097388	 8.688643	-14.727970	-4.301429	 89.782100	 78.203900	-180.000000	-53.143260	-0.835990	 90.207280	 11.550950	 0.319734	 137.301400	 5.747765	-13.631050	 3.012032	 5.716295	 19.173350	-3.684826	 5.027458	 0.246833	-9.377971	-2.350882	 35.473990	 5.254307
-0.716872	-0.034265	 1.267331	 168.325700	-11.143600	-0.155375	 3.194288	 4.870725	 179.184400	-1.425716	-30.142760	-1.451810	-43.719390	 76.485000	 33.672510	-2.385833	 28.452760	 0.000004	-30.808640	-3.197822	-164.760900	 10.686520	-31.150470	 5.692380	 13.323020	 76.827770	-16.306930	 2.384659	 28.388700	-0.000001	 53.852550	 7.631633	-15.109820	 6.912092	 9.461522	-6.159719	 11.709550	-3.710282	 11.729990	-91.776240	 78.527380	-180.000000	-34.822400	 36.760800	-28.520670	-30.434800	 18.966800	-56.743530	-55.314180	-54.261630	-34.296370	-4.130354	 21.526190	 0.991307	-5.167926	 0.731697	 3.519349	-1.378229	 35.397820	-2.634230	 15.120200	 5.570038	-4.662206	 8.660833	-16.457050	-4.232214	 89.782030	 78.203920	-179.999900	-52.022800	-1.434046	 91.102510	 12.935030	-0.991209	 136.348400	 2.719946	-12.860880	 2.689709	 5.716295	 19.173350	-3.684826	 5.027458	 0.246833	-9.377971	-2.350882	 35.473990	 5.254307
-0.716875	-0.034306	 1.267285	 167.873600	-10.922280	-0.270834	 2.353419	 4.877797	 179.622700	-1.180598	-29.884040	-1.318177	-43.199490	 76.530010	 32.930880	-2.385833	 28.452760	 0.000004	-31.395970	-3.757732	-164.632000	 10.981120	-31.303120	 5.874568	 12.595750	 76.989550	-15.683700	 2.384659	 28.388700	-0.000001	 55.326200	 6.512590	-15.504100	 7.720750	 10.788950	-6.147065	 12.140390	-5.559319	 12.261640	-91.776120	 78.527360	 180.000000	-37.955650	 35.337730	-33.130870	-30.884960	 18.358180	-55.205290	-57.285520	-54.937240	-35.517130	-4.130354	 21.526190	 0.991307	-5.167926	 0.731697	 3.519349	-1.378229	 35.397820	-2.634230	 15.156500	 5.882155	-5.091476	 8.656904	-18.124630	-4.268539	 89.782080	 78.203850	-180.000000	-50.364310	-2.110259	 92.147000	 14.561980	-2.637153	 135.612500	-0.563487	-11.623740	 2.558111	 5.716295	 19.173350	-3.684826	 5.027458	 0.246833	-9.377971	-2.350882	 35.473990	 5.254307
